# xmcd
#
# Track frame offsets: 
#        150
#        12599
#        29453
#        42567
#        58971
#        74683
#        88086
#        102812
#        120366
#        134413
#        148049
#        162479
#        174171
#        186822
#        200029
#        211986
#        227799
#        244469
#        255377
#        267571
#
# Disc length: 3773 seconds
#
# Revision: 1
# Processed by: cddbd v1.5.2PL0 Copyright (c) Steve Scherf et al.
# Submitted via: ExactAudioCopy v0.99pb5
#
DISCID=360ebb14
DTITLE=Los Tigres Del Norte - 20 Norteñas Famosas
DYEAR=2004
DGENRE=Country
TTITLE0=La Jaula De Oro
TTITLE1=Por Que Me Quite del Vicio
TTITLE2=Carta Abierta
TTITLE3=El Tahur
TTITLE4=Rosita De Olivo
TTITLE5=Ya Te Velé
TTITLE6=Pedro Y Pablo
TTITLE7=Los Hijos De Hernández
TTITLE8=La Banda Del Carro Rojo
TTITLE9=El Niño Y La Boda
TTITLE10=Mi Buena Suerte
TTITLE11=Pueblo Querido
TTITLE12=Amorcito Norteño
TTITLE13=Corazón Usado
TTITLE14=Bohemio De Afición
TTITLE15=Cuestin Olvidada
TTITLE16=Asómate A Mi Copa
TTITLE17=Orgullo Maldito
TTITLE18=Amor Garantizado
TTITLE19=La Puerta Negra
EXTD=LosTigresDelNorte Herencia Musical (20 NorteñasFamosas)
EXTT0=
EXTT1=
EXTT2=
EXTT3=
EXTT4=
EXTT5=
EXTT6=
EXTT7=
EXTT8=
EXTT9=
EXTT10=
EXTT11=
EXTT12=
EXTT13=
EXTT14=
EXTT15=
EXTT16=
EXTT17=
EXTT18=
EXTT19=
PLAYORDER=
